<?xml version="1.0" encoding="UTF-8" standalone="no"?>
<!-- Created with Inkscape (http://www.inkscape.org/) -->

<svg
   width="6.9667654mm"
   height="10.132523mm"
   viewBox="0 0 6.9667654 10.132523"
   version="1.1"
   id="svg3485"
   inkscape:version="1.2 (dc2aedaf03, 2022-05-15)"
   sodipodi:docname="location-icon-pink.svg"
   xmlns:inkscape="http://www.inkscape.org/namespaces/inkscape"
   xmlns:sodipodi="http://sodipodi.sourceforge.net/DTD/sodipodi-0.dtd"
   xmlns="http://www.w3.org/2000/svg"
   xmlns:svg="http://www.w3.org/2000/svg">
  <sodipodi:namedview
     id="namedview3487"
     pagecolor="#ffffff"
     bordercolor="#666666"
     borderopacity="1.0"
     inkscape:showpageshadow="2"
     inkscape:pageopacity="0.0"
     inkscape:pagecheckerboard="0"
     inkscape:deskcolor="#d1d1d1"
     inkscape:document-units="mm"
     showgrid="false"
     inkscape:zoom="0.58707211"
     inkscape:cx="38.325786"
     inkscape:cy="248.69177"
     inkscape:window-width="1600"
     inkscape:window-height="831"
     inkscape:window-x="0"
     inkscape:window-y="32"
     inkscape:window-maximized="1"
     inkscape:current-layer="layer1" />
  <defs
     id="defs3482" />
  <g
     inkscape:label="Layer 1"
     inkscape:groupmode="layer"
     id="layer1"
     transform="translate(-42.035589,-82.366208)">
    <path
       d="m 48.51923,84.1012 c -0.61495,-1.06126 -1.70724,-1.70962 -2.92189,-1.7344 -0.0519,-7.9e-4 -0.10404,-7.9e-4 -0.15591,0 -1.21463,0.0248 -2.30692,0.67314 -2.92189,1.7344 -0.62859,1.08477 -0.6458,2.38778 -0.046,3.48559 l 2.51268,4.59909 c 7.9e-4,0.002 0.002,0.004 0.003,0.006 0.11055,0.19214 0.3086,0.30685 0.5298,0.30685 0.22118,0 0.41923,-0.11473 0.52976,-0.30685 7.9e-4,-0.002 0.002,-0.004 0.003,-0.006 l 2.51268,-4.59909 c 0.59973,-1.09781 0.58254,-2.40082 -0.0461,-3.48559 z m -2.99984,2.85625 c -0.78571,0 -1.42493,-0.63923 -1.42493,-1.42493 0,-0.78571 0.63922,-1.42493 1.42493,-1.42493 0.78571,0 1.42492,0.63922 1.42492,1.42493 0,0.7857 -0.63919,1.42493 -1.42492,1.42493 z"
       id="path6831"
       style="fill:#c8949f;fill-opacity:1;stroke-width:0.0197906" />
  </g>
</svg>
