<?xml version="1.0" encoding="UTF-8" standalone="no"?>
<!-- Created with Inkscape (http://www.inkscape.org/) -->

<svg
   width="88.461853mm"
   height="11.996847mm"
   viewBox="0 0 88.461853 11.996847"
   version="1.1"
   id="svg607"
   inkscape:version="1.2 (dc2aedaf03, 2022-05-15)"
   sodipodi:docname="logo.svg"
   xmlns:inkscape="http://www.inkscape.org/namespaces/inkscape"
   xmlns:sodipodi="http://sodipodi.sourceforge.net/DTD/sodipodi-0.dtd"
   xmlns:xlink="http://www.w3.org/1999/xlink"
   xmlns="http://www.w3.org/2000/svg"
   xmlns:svg="http://www.w3.org/2000/svg">
  <sodipodi:namedview
     id="namedview609"
     pagecolor="#ffffff"
     bordercolor="#666666"
     borderopacity="1.0"
     inkscape:showpageshadow="2"
     inkscape:pageopacity="0.0"
     inkscape:pagecheckerboard="0"
     inkscape:deskcolor="#d1d1d1"
     inkscape:document-units="mm"
     showgrid="false"
     inkscape:zoom="0.58707211"
     inkscape:cx="198.4424"
     inkscape:cy="240.17493"
     inkscape:window-width="1600"
     inkscape:window-height="831"
     inkscape:window-x="0"
     inkscape:window-y="32"
     inkscape:window-maximized="1"
     inkscape:current-layer="text4069" />
  <defs
     id="defs604">
    <linearGradient
       inkscape:collect="always"
       xlink:href="#linearGradient4137"
       id="linearGradient4139"
       x1="37.886757"
       y1="-11.234505"
       x2="111.34954"
       y2="-3.1340246"
       gradientUnits="userSpaceOnUse"
       gradientTransform="matrix(0.72830083,0,0,0.72830083,-170.77965,147.87891)" />
    <linearGradient
       inkscape:collect="always"
       id="linearGradient4137">
      <stop
         style="stop-color:#483737;stop-opacity:1"
         offset="0"
         id="stop4133" />
      <stop
         style="stop-color:#780f4a;stop-opacity:1"
         offset="1"
         id="stop4135" />
    </linearGradient>
    <clipPath
       clipPathUnits="userSpaceOnUse"
       id="clipPath557-3">
      <rect
         style="fill:#ffffff;fill-opacity:1;stroke-width:1.32292"
         id="rect559-6"
         width="43.543079"
         height="29.215096"
         x="37.62122"
         y="-88.354065"
         ry="1.0173694" />
    </clipPath>
    <linearGradient
       inkscape:collect="always"
       xlink:href="#linearGradient4137"
       id="linearGradient803"
       gradientUnits="userSpaceOnUse"
       gradientTransform="matrix(0.72830083,0,0,0.72830083,7.36532,23.94112)"
       x1="37.886757"
       y1="-11.234505"
       x2="111.34954"
       y2="-3.1340246" />
  </defs>
  <g
     inkscape:label="Layer 1"
     inkscape:groupmode="layer"
     id="layer1"
     transform="translate(-8.0482882,-12.930255)">
    <g
       id="g738"
       transform="translate(5.63798,27.96665)">
      <g
         id="g434"
         transform="matrix(0.44453353,0,0,0.44453353,-15.133408,23.249707)"
         clip-path="url(#clipPath557-3)">
        <path
           style="fill:#a59596;stroke-width:0.264583"
           d="m 70.909091,-48.258653 c 0,-0.05494 0.20836,-0.2633 0.463021,-0.463021 0.419645,-0.329107 0.429004,-0.319749 0.0999,0.0999 -0.345643,0.44073 -0.562917,0.580888 -0.562917,0.363125 z M 50.61546,-49.746257 c 0,-0.800365 0.0496,-1.127787 0.110223,-0.727604 0.06062,0.400182 0.06062,1.055026 0,1.455208 -0.06062,0.400182 -0.110223,0.07276 -0.110223,-0.727604 z m 1.077645,0.417327 c 0.02199,-0.67759 0.171466,-1.074936 0.43057,-1.144622 0.270698,-0.07281 0.298572,-0.03651 0.08767,0.114152 -0.170061,0.121492 -0.363818,0.636569 -0.43057,1.144622 -0.116263,0.884899 -0.119949,0.880102 -0.08767,-0.114152 z m 0.756537,0.11184 c 0,-0.509323 0.05445,-0.717683 0.121001,-0.463021 0.06655,0.254661 0.06655,0.67138 0,0.926041 -0.06655,0.254662 -0.121001,0.0463 -0.121001,-0.46302 z m 1.063672,-0.132292 c 0.0029,-0.582083 0.05712,-0.789054 0.120407,-0.459936 0.06329,0.329118 0.06088,0.805368 -0.0053,1.058333 -0.06622,0.252966 -0.118004,-0.01632 -0.115067,-0.598397 z m 6.904892,-1.190625 c 0,-1.236927 0.04558,-1.742943 0.101283,-1.124479 0.0557,0.618463 0.0557,1.630495 0,2.248958 -0.05571,0.618464 -0.101283,0.112448 -0.101283,-1.124479 z m 1.032608,1.190625 c 0.0029,-0.582083 0.05712,-0.789054 0.120407,-0.459936 0.06329,0.329118 0.06088,0.805368 -0.0053,1.058333 -0.06622,0.252966 -0.118004,-0.01632 -0.115067,-0.598397 z m -14.841613,-0.396875 c 0,-0.363802 0.06005,-0.51263 0.133452,-0.330729 0.0734,0.181901 0.0734,0.479557 0,0.661458 -0.0734,0.181901 -0.133452,0.03307 -0.133452,-0.330729 z m 29.368749,0 c 0,-0.363802 0.06005,-0.51263 0.133453,-0.330729 0.0734,0.181901 0.0734,0.479557 0,0.661458 -0.0734,0.181901 -0.133453,0.03307 -0.133453,-0.330729 z m -27.823025,-0.529167 c -0.238467,-0.154109 -0.271101,-0.258098 -0.08176,-0.260532 0.173313,-0.0021 0.388699,0.115011 0.478636,0.260532 0.203016,0.328488 0.111422,0.328488 -0.396876,0 z m 25.929166,0.150911 c 0,-0.07276 0.238125,-0.259734 0.529167,-0.415494 0.291042,-0.15576 0.529167,-0.223671 0.529167,-0.15091 0,0.07276 -0.238125,0.259733 -0.529167,0.415493 -0.291042,0.15576 -0.529167,0.223671 -0.529167,0.150911 z m -12.638616,-1.738411 c 0,-0.509323 0.05445,-0.717682 0.121002,-0.463021 0.06655,0.254662 0.06655,0.671381 0,0.926042 -0.06655,0.254662 -0.121002,0.0463 -0.121002,-0.463021 z m -21.542243,-0.180739 c 0.190996,-0.07643 0.419199,-0.06703 0.507118,0.02088 0.08792,0.08792 -0.06835,0.150453 -0.347265,0.138965 -0.308225,-0.0127 -0.37092,-0.07539 -0.159853,-0.159851 z m 21.538361,-13.572078 -0.0575,-6.476775 -2.447395,2.375713 -2.447396,2.375712 2.513541,-2.585654 2.513542,-2.585653 0.07405,3.313278 c 0.04073,1.822305 0.03684,4.831326 -0.0087,6.686717 -0.04548,1.855391 -0.108572,0.458888 -0.140198,-3.103338 z m -5.035642,-6.074288 -0.04894,-1.703147 0.79375,0.76046 c 0.436563,0.418254 0.79375,0.818471 0.79375,0.889372 0,0.0709 -0.290933,-0.144406 -0.646517,-0.478461 l -0.64652,-0.607373 -0.09829,1.421148 -0.09829,1.421148 z m 9.211474,-3.853103 c 1.376698,-1.382448 2.562622,-2.513542 2.635382,-2.513542 0.07276,0 -0.9941,1.131094 -2.370799,2.513542 -1.376698,1.382448 -2.562622,2.513541 -2.635382,2.513541 -0.07276,0 0.9941,-1.131093 2.370799,-2.513541 z m -13.366975,-0.992188 -2.375733,-2.447396 2.447395,2.375734 c 1.346068,1.306654 2.447396,2.407982 2.447396,2.447396 0,0.192101 -0.312531,-0.102647 -2.519058,-2.375734 z m 4.233333,-7.14375 -2.375733,-2.447396 2.447396,2.375734 2.447395,2.375734 2.447396,-2.375734 2.447396,-2.375734 -2.375733,2.447396 c -1.306653,1.346068 -2.440231,2.447396 -2.519059,2.447396 -0.07883,0 -1.212405,-1.101328 -2.519058,-2.447396 z"
           id="path448" />
        <path
           style="fill:#c07b84;stroke-width:0.264583"
           d="m 42.926877,-72.62749 -0.06362,-13.488524 2.513542,2.50309 c 1.382448,1.3767 2.513542,2.562491 2.513542,2.635091 0,0.0726 -1.070437,-0.933475 -2.378747,-2.235724 l -2.378747,-2.367726 -0.07118,13.221159 -0.07118,13.221159 z m 13.694715,9.31582 v -4.040412 l 2.381249,-2.370217 2.38125,-2.370217 v 6.41063 6.410629 h -2.38125 -2.381249 z m 6.730137,-2.838754 c 0,-3.856302 0.03699,-5.43388 0.08219,-3.505729 0.04521,1.928151 0.04521,5.083307 0,7.011458 -0.04521,1.928151 -0.08219,0.350573 -0.08219,-3.505729 z m 11.587506,-6.212192 -0.06139,-13.22365 -2.447395,2.375713 -2.447396,2.375713 2.513541,-2.585146 2.513542,-2.585146 0.07065,6.770847 c 0.03886,3.723966 0.03672,9.768854 -0.0048,13.433085 -0.04147,3.664228 -0.103032,0.711591 -0.136798,-6.561416 z m -23.084872,9.58563 c 2.575992,-2.64182 2.915145,-2.964482 2.915145,-2.773397 0,0.03898 -1.279922,1.3189 -2.844271,2.844271 l -2.84427,2.773397 z m 2.749535,-8.532813 c 5.29e-4,-1.600729 0.04417,-2.22146 0.09684,-1.379402 0.05266,0.842059 0.05218,2.151745 -0.0011,2.910416 -0.05326,0.758672 -0.09635,0.06972 -0.09576,-1.531014 z m 2.017694,-0.310704 v -1.236745 l 0.662942,0.622801 0.66294,0.622801 -0.57677,0.613945 c -0.317223,0.337669 -0.615548,0.613944 -0.66294,0.613944 -0.04739,0 -0.08617,-0.556536 -0.08617,-1.236746 z m 0.06614,-14.306088 c 1.273308,-0.0485 3.356901,-0.0485 4.630209,0 1.273307,0.0485 0.23151,0.08818 -2.315105,0.08818 -2.546614,0 -3.588411,-0.03968 -2.315104,-0.08818 z"
           id="path446" />
        <path
           style="fill:#ac4f5b;stroke-width:0.264583"
           d="m 48.419508,-59.371153 c 0,-0.05494 0.20836,-0.2633 0.463021,-0.463021 0.419645,-0.329107 0.429003,-0.319749 0.0999,0.0999 -0.345644,0.44073 -0.562916,0.580887 -0.562916,0.363125 z m 15.08125,-6.850933 v -6.950829 l 2.38125,-2.370217 2.38125,-2.370217 v 9.321046 9.321046 h -2.38125 -2.38125 z m -6.746875,-17.390838 -2.104252,-2.116667 h 4.35321 4.353211 l -2.104252,2.116667 c -1.157338,1.164167 -2.169369,2.116667 -2.248959,2.116667 -0.07959,0 -1.09162,-0.9525 -2.248958,-2.116667 z"
           id="path444" />
        <path
           style="fill:#8d4b4d;stroke-width:0.264583"
           d="m 43.718392,-49.21709 c 0,-0.509323 0.05445,-0.717683 0.121,-0.463021 0.06655,0.254661 0.06655,0.67138 0,0.926041 -0.06655,0.254662 -0.121,0.0463 -0.121,-0.46302 z m 1.857423,-0.132292 c 0.0029,-0.582083 0.05712,-0.789054 0.120406,-0.459936 0.06329,0.329118 0.06088,0.805368 -0.0053,1.058333 -0.06622,0.252966 -0.118004,-0.01631 -0.115067,-0.598397 z m 8.949999,-0.551214 c 0.0127,-0.308227 0.07539,-0.37092 0.15985,-0.159854 0.07643,0.190995 0.06703,0.419198 -0.02088,0.507119 -0.08792,0.08792 -0.150453,-0.06835 -0.138965,-0.347265 z m 16.180077,-0.374828 c 0,-0.509323 0.05445,-0.717682 0.121002,-0.463021 0.06655,0.254662 0.06655,0.671381 0,0.926042 -0.06655,0.254662 -0.121002,0.0463 -0.121002,-0.463021 z m -26.982159,-1.719791 c 0.0029,-0.582084 0.05712,-0.789054 0.120406,-0.459936 0.06329,0.329118 0.06088,0.805368 -0.0053,1.058333 -0.06622,0.252966 -0.118003,-0.01631 -0.115066,-0.598397 z m 2.57911,-7.358833 c 0,-0.04554 0.386953,-0.432488 0.859895,-0.859896 l 0.859896,-0.777105 -0.777105,0.859896 c -0.724371,0.801545 -0.942686,0.981512 -0.942686,0.777105 z m 5.291666,-2.959917 c 1.668743,-1.67349 3.065785,-3.042709 3.104539,-3.042709 0.03875,0 0.07046,1.369219 0.07046,3.042709 v 3.042708 h -3.104539 -3.104537 z m -1.852083,-8.995834 v -7.661884 l 2.38125,2.370217 2.38125,2.370218 v 2.921449 2.92145 l -2.38125,2.370217 -2.38125,2.370217 z"
           id="path442" />
        <path
           style="fill:#962233;stroke-width:0.264583"
           d="m 70.115341,-70.058545 v -10.787287 l 2.38125,-2.370217 2.38125,-2.370217 v 13.157504 13.157505 h -2.38125 -2.38125 z"
           id="path440" />
        <path
           style="fill:#661518;stroke-width:0.264583"
           d="m 39.485059,-49.21709 c 0,-0.509323 0.05445,-0.717683 0.121,-0.463021 0.06655,0.254661 0.06655,0.67138 0,0.926041 -0.06655,0.254662 -0.121,0.0463 -0.121,-0.46302 z m 24.108147,-1.322917 c 0,-1.236927 0.04558,-1.742943 0.101283,-1.124479 0.0557,0.618463 0.0557,1.630495 0,2.248958 -0.05571,0.618464 -0.101283,0.112448 -0.101283,-1.124479 z m 5.260602,0.264583 c 0,-0.509323 0.05445,-0.717682 0.121002,-0.463021 0.06655,0.254662 0.06655,0.671381 0,0.926042 -0.06655,0.254662 -0.121002,0.0463 -0.121002,-0.463021 z m -29.388357,-1.058333 c 0,-0.363802 0.06005,-0.51263 0.133452,-0.330729 0.0734,0.181901 0.0734,0.479557 0,0.661458 -0.0734,0.181901 -0.133452,0.03307 -0.133452,-0.330729 z m 3.662391,-21.095005 v -13.157504 l 2.38125,2.370217 2.38125,2.370217 v 9.941635 9.941636 l -0.872492,0.845651 c -0.774092,0.750281 -1.04265,0.845653 -2.38125,0.845653 h -1.508758 z"
           id="path438" />
      </g>
    </g>
    <g
       aria-label="PHONE HOUSE"
       id="text4069"
       style="font-size:11.2421px;line-height:1.5;font-family:Alatsi;-inkscape-font-specification:'Alatsi, Normal';fill:url(#linearGradient803);stroke-width:0.175657">
      <path
         d="m 30.710103,14.999553 q 1.326568,0 2.102273,0.629558 0.775705,0.623936 0.775705,2.113514 0,0.809432 -0.303537,1.489579 -0.303537,0.674526 -0.944336,1.090483 -0.635179,0.410337 -1.585136,0.410337 h -0.697011 v 2.102273 H 28.60783 v -7.835744 z m -0.05621,4.553051 q 0.736357,0 1.107346,-0.438442 0.376611,-0.444063 0.376611,-1.292842 0,-0.59021 -0.146147,-0.955578 -0.146148,-0.37099 -0.483411,-0.550863 -0.331642,-0.179874 -0.888126,-0.179874 h -0.562105 v 3.417599 z"
         id="path828" />
      <path
         d="m 40.254656,14.999553 v 7.835744 H 38.793183 V 19.507635 H 36.2075 v 3.327662 H 34.757269 V 14.999553 H 36.2075 v 3.271451 h 2.585683 v -3.271451 z"
         id="path830" />
      <path
         d="m 44.908881,22.970202 q -1.045515,0 -1.781873,-0.494653 -0.736357,-0.500273 -1.112968,-1.410883 -0.37661,-0.916231 -0.37661,-2.152862 0,-1.225389 0.370989,-2.135999 0.37661,-0.916231 1.101726,-1.410884 0.730736,-0.500273 1.76501,-0.500273 1.07362,0 1.809978,0.505894 0.736357,0.500274 1.101725,1.410884 0.37099,0.91061 0.37099,2.130378 0,1.236631 -0.382232,2.152862 -0.37661,0.91061 -1.107347,1.410883 -0.730736,0.494653 -1.759388,0.494653 z m 0,-1.202905 q 0.500273,0 0.893747,-0.3204 0.399094,-0.3204 0.629557,-0.972441 0.230463,-0.652042 0.230463,-1.596378 0,-1.3884 -0.472168,-2.113515 -0.466547,-0.730737 -1.315325,-0.730737 -0.826295,0 -1.2816,0.730737 -0.449684,0.725115 -0.449684,2.124757 0,0.955578 0.2136,1.601999 0.219221,0.6408 0.612695,0.961199 0.399094,0.314779 0.938715,0.314779 z"
         id="path832" />
      <path
         d="m 55.082992,14.999553 v 7.993133 h -0.112421 l -3.754862,-4.28324 -0.348505,-0.449684 0.05621,1.090484 v 3.485051 H 49.540637 V 14.864648 H 49.6643 l 3.69865,4.316966 0.393474,0.511516 -0.05621,-1.073621 v -3.619956 z"
         id="path834" />
      <path
         d="m 61.254897,21.564939 v 1.270358 h -4.316966 v -7.835744 h 4.092124 v 1.225389 h -2.686862 v 1.832462 h 2.135999 v 1.191663 h -2.135999 v 2.315872 z"
         id="path836" />
      <path
         d="m 70.293557,14.999553 v 7.835744 h -1.461473 v -3.327662 h -2.585683 v 3.327662 H 64.79617 v -7.835744 h 1.450231 v 3.271451 h 2.585683 v -3.271451 z"
         id="path838" />
      <path
         d="m 74.947781,22.970202 q -1.045515,0 -1.781873,-0.494653 -0.736357,-0.500273 -1.112967,-1.410883 -0.376611,-0.916231 -0.376611,-2.152862 0,-1.225389 0.37099,-2.135999 0.37661,-0.916231 1.101725,-1.410884 0.730737,-0.500273 1.76501,-0.500273 1.07362,0 1.809978,0.505894 0.736358,0.500274 1.101726,1.410884 0.370989,0.91061 0.370989,2.130378 0,1.236631 -0.382231,2.152862 -0.376611,0.91061 -1.107347,1.410883 -0.730737,0.494653 -1.759389,0.494653 z m 0,-1.202905 q 0.500274,0 0.893747,-0.3204 0.399095,-0.3204 0.629558,-0.972441 0.230463,-0.652042 0.230463,-1.596378 0,-1.3884 -0.472168,-2.113515 -0.466548,-0.730737 -1.315326,-0.730737 -0.826294,0 -1.281599,0.730737 -0.449684,0.725115 -0.449684,2.124757 0,0.955578 0.213599,1.601999 0.219221,0.6408 0.612695,0.961199 0.399094,0.314779 0.938715,0.314779 z"
         id="path840" />
      <path
         d="m 82.16522,22.981444 q -1.275978,0 -2.03482,-0.680147 -0.753221,-0.685768 -0.753221,-2.265283 v -5.036461 h 1.461473 v 5.19385 q 0,0.888126 0.387852,1.225389 0.393474,0.337263 0.916232,0.337263 0.528378,0 0.899368,-0.331642 0.370989,-0.331642 0.370989,-1.23101 v -5.19385 h 1.461473 v 5.036461 q 0,1.579515 -0.736358,2.265283 -0.736357,0.680147 -1.972988,0.680147 z"
         id="path842" />
      <path
         d="m 88.47204,22.95896 q -0.522758,0 -0.989305,-0.123663 -0.460926,-0.123663 -0.809431,-0.3204 -0.348505,-0.196737 -0.550863,-0.410337 l 0.573347,-1.18042 q 0.129284,0.168631 0.393474,0.359747 0.264189,0.191116 0.601452,0.326021 0.342884,0.134905 0.680147,0.134905 0.444063,0 0.741979,-0.241705 0.303536,-0.247326 0.303536,-0.691389 0,-0.286674 -0.140526,-0.494653 -0.134905,-0.2136 -0.365368,-0.37661 -0.224842,-0.168632 -0.69701,-0.455305 -0.646421,-0.393474 -1.011789,-0.668905 -0.365369,-0.281053 -0.635179,-0.730737 -0.264189,-0.455305 -0.264189,-1.096104 0,-0.623937 0.264189,-1.101726 0.26981,-0.48341 0.792568,-0.753221 0.522758,-0.26981 1.259115,-0.26981 1.197284,0 2.001094,0.730736 l -0.629558,1.146695 q -0.09556,-0.134906 -0.286673,-0.292295 -0.191116,-0.16301 -0.460926,-0.275431 -0.269811,-0.118043 -0.567726,-0.118043 -0.432821,0 -0.674526,0.252948 -0.236084,0.247326 -0.236084,0.623936 0,0.286674 0.140526,0.511516 0.146147,0.219221 0.37661,0.393473 0.236084,0.174253 0.629558,0.410337 0.713873,0.421579 1.090484,0.708252 0.37661,0.286674 0.629557,0.730737 0.258568,0.438442 0.258568,1.079241 0,0.680147 -0.292294,1.1748 -0.292295,0.494652 -0.837537,0.758841 -0.545241,0.258569 -1.28722,0.258569 z"
         id="path844" />
      <path
         d="m 96.510139,21.564939 v 1.270358 h -4.316967 v -7.835744 h 4.092125 v 1.225389 h -2.686862 v 1.832462 h 2.135999 v 1.191663 h -2.135999 v 2.315872 z"
         id="path846" />
    </g>
  </g>
</svg>
