<?xml version="1.0" encoding="UTF-8" standalone="no"?>
<!-- Created with Inkscape (http://www.inkscape.org/) -->

<svg
   width="14.236271mm"
   height="14.236251mm"
   viewBox="0 0 14.236271 14.236251"
   version="1.1"
   id="svg354"
   inkscape:version="1.2 (dc2aedaf03, 2022-05-15)"
   sodipodi:docname="menu-icon.svg"
   xmlns:inkscape="http://www.inkscape.org/namespaces/inkscape"
   xmlns:sodipodi="http://sodipodi.sourceforge.net/DTD/sodipodi-0.dtd"
   xmlns:xlink="http://www.w3.org/1999/xlink"
   xmlns="http://www.w3.org/2000/svg"
   xmlns:svg="http://www.w3.org/2000/svg">
  <sodipodi:namedview
     id="namedview356"
     pagecolor="#ffffff"
     bordercolor="#666666"
     borderopacity="1.0"
     inkscape:showpageshadow="2"
     inkscape:pageopacity="0.0"
     inkscape:pagecheckerboard="0"
     inkscape:deskcolor="#d1d1d1"
     inkscape:document-units="mm"
     showgrid="false"
     inkscape:zoom="0.58707211"
     inkscape:cx="-183.11209"
     inkscape:cy="80.058308"
     inkscape:window-width="1600"
     inkscape:window-height="831"
     inkscape:window-x="0"
     inkscape:window-y="32"
     inkscape:window-maximized="1"
     inkscape:current-layer="layer1" />
  <defs
     id="defs351">
    <linearGradient
       inkscape:collect="always"
       xlink:href="#linearGradient9953"
       id="linearGradient9955"
       x1="300.0755"
       y1="-9.836132"
       x2="307.108"
       y2="-2.9055204"
       gradientUnits="userSpaceOnUse"
       gradientTransform="translate(-173.19583,67.363707)" />
    <linearGradient
       inkscape:collect="always"
       id="linearGradient9953">
      <stop
         style="stop-color:#000000;stop-opacity:1;"
         offset="0"
         id="stop9949" />
      <stop
         style="stop-color:#7c104b;stop-opacity:1"
         offset="1"
         id="stop9951" />
    </linearGradient>
  </defs>
  <g
     inkscape:label="Layer 1"
     inkscape:groupmode="layer"
     id="layer1"
     transform="translate(-124.03058,-54.625426)">
    <path
       style="fill:url(#linearGradient9955);fill-opacity:1;stroke-width:0.0278178"
       d="m 130.49598,68.833447 c -1.19001,-0.11068 -2.34638,-0.52491 -3.34585,-1.19855 -0.76116,-0.51302 -1.55951,-1.34546 -2.05018,-2.13771 -1.42583,-2.30222 -1.42583,-5.20635 0,-7.50857 0.28535,-0.46074 0.56766,-0.80957 1.02678,-1.26868 0.45891,-0.45891 0.80743,-0.74102 1.26868,-1.02692 2.55609,-1.58437 5.85336,-1.39024 8.19122,0.48227 0.50861,0.40737 1.10805,1.05332 1.45513,1.56805 1.58386,2.3489 1.63556,5.3473 0.13406,7.77458 -0.17383,0.28101 -0.25069,0.35058 -0.44464,0.40245 -0.1034,0.0276 -0.15549,0.0275 -0.26083,-4e-4 -0.26637,-0.0712 -0.41001,-0.25762 -0.41053,-0.53269 -2.7e-4,-0.16459 0.01,-0.18901 0.2338,-0.55636 1.07783,-1.76875 1.14616,-4.02451 0.17779,-5.86948 -0.78308,-1.49195 -2.19194,-2.61677 -3.79441,-3.02941 -0.55844,-0.1438 -0.8918,-0.18307 -1.54121,-0.18157 -0.99665,0.002 -1.73124,0.16967 -2.61487,0.59573 -0.60517,0.2918 -1.1444,0.67994 -1.64125,1.18138 -0.90195,0.9103 -1.47273,2.04514 -1.6739,3.32809 -0.0681,0.43393 -0.0688,1.33657 -0.002,1.76375 0.26879,1.70638 1.18456,3.15224 2.60174,4.10775 1.33735,0.90168 2.96073,1.22109 4.56319,0.89783 0.52343,-0.10559 0.96078,-0.2628 1.55622,-0.55939 0.52195,-0.25999 0.54024,-0.2667 0.68136,-0.24999 0.49908,0.0591 0.66829,0.70049 0.26239,0.99452 -0.16821,0.12185 -0.783,0.42727 -1.14498,0.56881 -0.99294,0.38824 -2.1662,0.55352 -3.22816,0.45476 z m -2.03069,-4.34212 c -0.2801,-0.0986 -0.42797,-0.38939 -0.34634,-0.68097 0.0471,-0.16822 0.19869,-0.32166 0.36218,-0.36657 0.0937,-0.0257 0.74578,-0.032 2.72421,-0.0259 2.48609,0.008 2.60563,0.0103 2.70684,0.0606 0.21807,0.10831 0.33816,0.38088 0.27381,0.62148 -0.0449,0.16774 -0.13945,0.29148 -0.27381,0.35821 -0.10137,0.0504 -0.21793,0.0528 -2.73466,0.0576 -1.78732,0.003 -2.65549,-0.004 -2.71223,-0.0244 z m -0.0126,-2.22837 c -0.13977,-0.0446 -0.29066,-0.20827 -0.33373,-0.36209 -0.0663,-0.23692 0.0183,-0.4751 0.21907,-0.61696 l 0.11815,-0.0834 h 2.69353 2.69353 l 0.11814,0.0834 c 0.20083,0.14186 0.2854,0.38004 0.21907,0.61696 -0.0452,0.16159 -0.19557,0.31795 -0.35023,0.36428 -0.15389,0.0461 -5.23251,0.044 -5.37753,-0.002 z m 0.0126,-2.22247 c -0.2801,-0.0986 -0.42797,-0.38939 -0.34634,-0.68097 0.0471,-0.16823 0.19869,-0.32166 0.36218,-0.36657 0.0937,-0.0257 0.74578,-0.032 2.72421,-0.0259 2.48609,0.008 2.60563,0.0103 2.70684,0.0606 0.13436,0.0667 0.22895,0.19047 0.27381,0.35821 0.0643,0.2406 -0.0557,0.51317 -0.27381,0.62148 -0.10137,0.0504 -0.21793,0.0528 -2.73466,0.0576 -1.78732,0.003 -2.65549,-0.004 -2.71223,-0.0244 z"
       id="path9947" />
  </g>
</svg>
